<mxfile host="app.diagrams.net" modified="2023-12-10T09:54:04.755Z" agent="Mozilla/5.0 (Windows NT 10.0; Win64; x64) AppleWebKit/537.36 (KHTML, like Gecko) Chrome/120.0.0.0 Safari/537.36" etag="sHe_jz_Nghbtf32z9-VE" version="22.1.7" type="github">
  <diagram name="Side-1" id="Kf9_SM2S3UEdj10ifnin">
    <mxGraphModel dx="794" dy="458" grid="1" gridSize="10" guides="1" tooltips="1" connect="1" arrows="1" fold="1" page="1" pageScale="1" pageWidth="827" pageHeight="1169" math="0" shadow="0">
      <root>
        <mxCell id="0" />
        <mxCell id="1" parent="0" />
        <mxCell id="Hfg1uIaj8xVwxkPxyxNq-1" value="" style="endArrow=none;html=1;rounded=0;" edge="1" parent="1">
          <mxGeometry width="50" height="50" relative="1" as="geometry">
            <mxPoint x="400" y="480" as="sourcePoint" />
            <mxPoint x="400" y="80" as="targetPoint" />
          </mxGeometry>
        </mxCell>
        <mxCell id="Hfg1uIaj8xVwxkPxyxNq-2" value="" style="endArrow=none;html=1;rounded=0;" edge="1" parent="1">
          <mxGeometry width="50" height="50" relative="1" as="geometry">
            <mxPoint x="120" y="280" as="sourcePoint" />
            <mxPoint x="680" y="280" as="targetPoint" />
          </mxGeometry>
        </mxCell>
        <mxCell id="Hfg1uIaj8xVwxkPxyxNq-4" value="Ressourcepersoner" style="rounded=0;whiteSpace=wrap;html=1;fillColor=#dae8fc;strokeColor=#6c8ebf;" vertex="1" parent="1">
          <mxGeometry x="200" y="250" width="120" height="20" as="geometry" />
        </mxCell>
        <mxCell id="Hfg1uIaj8xVwxkPxyxNq-5" value="GrÃ¥ Eminence" style="rounded=0;whiteSpace=wrap;html=1;fillColor=#dae8fc;strokeColor=#6c8ebf;" vertex="1" parent="1">
          <mxGeometry x="200" y="290" width="120" height="20" as="geometry" />
        </mxCell>
        <mxCell id="Hfg1uIaj8xVwxkPxyxNq-6" value="Ude" style="rounded=0;whiteSpace=wrap;html=1;fillColor=#dae8fc;strokeColor=#6c8ebf;" vertex="1" parent="1">
          <mxGeometry x="470" y="290" width="120" height="20" as="geometry" />
        </mxCell>
        <mxCell id="Hfg1uIaj8xVwxkPxyxNq-7" value="Gidsel" style="rounded=0;whiteSpace=wrap;html=1;fillColor=#dae8fc;strokeColor=#6c8ebf;" vertex="1" parent="1">
          <mxGeometry x="470" y="250" width="120" height="20" as="geometry" />
        </mxCell>
        <mxCell id="Hfg1uIaj8xVwxkPxyxNq-8" value="Deltager" style="rounded=0;whiteSpace=wrap;html=1;fillColor=#e1d5e7;strokeColor=#9673a6;rotation=90;flipV=0;flipH=1;" vertex="1" parent="1">
          <mxGeometry x="40" y="180" width="120" height="20" as="geometry" />
        </mxCell>
        <mxCell id="Hfg1uIaj8xVwxkPxyxNq-9" value="Deltager ikke" style="rounded=0;whiteSpace=wrap;html=1;fillColor=#e1d5e7;strokeColor=#9673a6;rotation=90;flipV=0;flipH=1;" vertex="1" parent="1">
          <mxGeometry x="40" y="380" width="120" height="20" as="geometry" />
        </mxCell>
        <mxCell id="Hfg1uIaj8xVwxkPxyxNq-12" value="Har indflydelse" style="rounded=0;whiteSpace=wrap;html=1;fillColor=#e1d5e7;strokeColor=#9673a6;rotation=0;flipV=0;flipH=1;" vertex="1" parent="1">
          <mxGeometry x="180" y="60" width="120" height="20" as="geometry" />
        </mxCell>
        <mxCell id="Hfg1uIaj8xVwxkPxyxNq-13" value="Har ikke indlfydelse" style="rounded=0;whiteSpace=wrap;html=1;fillColor=#e1d5e7;strokeColor=#9673a6;rotation=0;flipV=0;flipH=1;" vertex="1" parent="1">
          <mxGeometry x="480" y="60" width="120" height="20" as="geometry" />
        </mxCell>
      </root>
    </mxGraphModel>
  </diagram>
</mxfile>
